<svg width="15" height="15" viewBox="0 0 15 15" fill="none" xmlns="http://www.w3.org/2000/svg">
<path d="M11.3528 7.16698C9.67202 6.72301 8.8475 7.10356 8.65722 7.80123C8.46695 8.49891 9.00606 9.26 10.6868 9.70398C12.3676 10.148 14.746 9.45028 14.746 9.45028C14.746 9.45028 13.0335 7.61096 11.3528 7.16698ZM3.64665 7.83294C5.32741 8.27692 6.15194 7.89637 6.34221 7.19869C6.53249 6.50102 5.99338 5.73992 4.31261 5.29595C2.63185 4.85197 0.253418 5.54965 0.253418 5.54965C0.253418 5.54965 1.96589 7.35726 3.64665 7.83294ZM7.19845 3.6469C6.75448 5.32766 7.13503 6.15218 7.8327 6.34246C8.53037 6.53273 9.29147 5.99362 9.73545 4.31286C10.1477 2.6321 9.45004 0.253662 9.45004 0.253662C9.45004 0.253662 7.64242 1.96614 7.19845 3.6469ZM7.8327 11.353C8.27667 9.67227 7.89612 8.84774 7.19845 8.65747C6.50078 8.46719 5.73968 9.0063 5.2957 10.6871C4.85173 12.3678 5.5494 14.7463 5.5494 14.7463C5.5494 14.7463 7.38872 13.0338 7.8327 11.353Z" fill="#F4BC58"/>
<path d="M9.98928 4.53473C8.46708 5.39097 8.18167 6.27892 8.5305 6.88146C8.87934 7.51571 9.799 7.67427 11.2895 6.78632C12.8117 5.93008 13.985 3.71021 13.985 3.71021C13.985 3.71021 11.5115 3.6785 9.98928 4.53473ZM5.01042 10.4333C6.53262 9.57702 6.81803 8.68907 6.46919 8.08653C6.12036 7.45228 5.2007 7.29372 3.71021 8.18167C2.21972 9.06962 1.01465 11.2578 1.01465 11.2578C1.01465 11.2578 3.51993 11.3212 5.01042 10.4333ZM4.56645 5.01042C5.42268 6.53262 6.31063 6.81803 6.91317 6.46919C7.54742 6.12036 7.70598 5.20069 6.81803 3.71021C5.96179 2.18801 3.74192 1.01465 3.74192 1.01465C3.74192 1.01465 3.6785 3.48822 4.56645 5.01042ZM10.465 9.98928C9.60873 8.46708 8.72078 8.18167 8.11824 8.5305C7.48399 8.87934 7.32543 9.799 8.21338 11.2895C9.06962 12.8117 11.2895 13.985 11.2895 13.985C11.2895 13.985 11.3212 11.4798 10.465 9.98928Z" fill="#F4BC58"/>
<path d="M8.81607 3.86892C8.81607 5.61311 8.24524 6.31078 7.51586 6.31078C6.78647 6.31078 6.21565 5.61311 6.21565 3.86892C6.18393 2.12474 7.51586 0 7.51586 0C7.51586 0 8.81607 2.12474 8.81607 3.86892ZM6.18393 11.1311C6.18393 9.38689 6.75476 8.68922 7.48414 8.68922C8.21353 8.68922 8.78436 9.38689 8.78436 11.1311C8.78436 12.8753 7.48414 15 7.48414 15C7.48414 15 6.18393 12.8753 6.18393 11.1311ZM11.1311 8.81607C9.38689 8.81607 8.68922 8.24524 8.68922 7.51586C8.68922 6.78647 9.38689 6.21565 11.1311 6.21565C12.8753 6.21565 15 7.51586 15 7.51586C15 7.51586 12.8753 8.81607 11.1311 8.81607ZM3.86892 6.18393C5.61311 6.18393 6.31078 6.75476 6.31078 7.48414C6.31078 8.21353 5.61311 8.78436 3.86892 8.78436C2.12474 8.78436 0 7.48414 0 7.48414C0 7.48414 2.12474 6.18393 3.86892 6.18393Z" fill="#FFCC66"/>
<path d="M11.0041 5.83514C9.7673 7.07193 8.84763 7.13535 8.34023 6.62795C7.83283 6.12055 7.89626 5.20089 9.13305 3.96411C10.3698 2.72732 12.78 2.15649 12.78 2.15649C12.78 2.15649 12.2409 4.63007 11.0041 5.83514ZM4.02734 9.13324C5.26412 7.89645 6.18379 7.83303 6.69119 8.34043C7.19859 8.84783 7.13516 9.76749 5.89837 11.0043C4.62987 12.2093 2.21973 12.7802 2.21973 12.7802C2.21973 12.7802 2.79055 10.37 4.02734 9.13324ZM9.16476 10.9726C7.92797 9.73578 7.86455 8.81611 8.37195 8.30871C8.87935 7.80132 9.79901 7.86474 11.0358 9.10153C12.2726 10.3383 12.8434 12.7485 12.8434 12.7485C12.8434 12.7485 10.3698 12.2093 9.16476 10.9726ZM5.86666 3.99582C7.10345 5.2326 7.16687 6.15227 6.65947 6.65967C6.15207 7.16707 5.23241 7.10364 3.99563 5.86685C2.79055 4.63007 2.21973 2.18821 2.21973 2.18821C2.21973 2.18821 4.62987 2.75903 5.86666 3.99582Z" fill="#FFCC66"/>
<path d="M7.83273 3.6469C8.2767 5.32766 7.89615 6.15218 7.19848 6.34246C6.5008 6.53273 5.7397 5.99362 5.29573 4.31286C4.85175 2.6321 5.54943 0.253662 5.54943 0.253662C5.54943 0.253662 7.38875 1.96614 7.83273 3.6469ZM7.19848 11.353C6.7545 9.67227 7.13505 8.84774 7.83273 8.65747C8.5304 8.46719 9.2915 9.0063 9.73547 10.6871C10.1794 12.3678 9.48177 14.7463 9.48177 14.7463C9.48177 14.7463 7.64245 13.0338 7.19848 11.353ZM11.3528 7.83294C9.67205 8.27692 8.84752 7.89637 8.65725 7.19869C8.46698 6.50102 9.00609 5.73992 10.6868 5.29595C12.3676 4.85197 14.746 5.54965 14.746 5.54965C14.746 5.54965 13.0336 7.35726 11.3528 7.83294ZM3.64668 7.16698C5.32744 6.72301 6.15196 7.10356 6.34224 7.80123C6.53251 8.49891 5.9934 9.26 4.31264 9.70398C2.66359 10.148 0.285156 9.41857 0.285156 9.41857C0.285156 9.41857 1.96592 7.61096 3.64668 7.16698Z" fill="#FFD68D"/>
<path d="M10.465 5.01042C9.60873 6.53262 8.72078 6.81803 8.11824 6.46919C7.48399 6.12036 7.32543 5.20069 8.21338 3.71021C9.06962 2.18801 11.2895 1.01465 11.2895 1.01465C11.2895 1.01465 11.3212 3.48822 10.465 5.01042ZM4.56645 9.98928C5.42268 8.46708 6.31063 8.18167 6.91317 8.5305C7.54742 8.87934 7.70598 9.799 6.81803 11.2895C5.96179 12.8117 3.74192 13.985 3.74192 13.985C3.74192 13.985 3.6785 11.4798 4.56645 9.98928ZM9.98928 10.4333C8.46708 9.57702 8.14995 8.68907 8.5305 8.08653C8.91105 7.48399 9.799 7.29372 11.2895 8.18167C12.8117 9.0379 13.985 11.2578 13.985 11.2578C13.985 11.2578 11.5115 11.3212 9.98928 10.4333ZM5.01042 4.53473C6.53262 5.39097 6.81803 6.27892 6.46919 6.88146C6.12036 7.51571 5.2007 7.67427 3.71021 6.78632C2.21972 5.89837 1.01465 3.71021 1.01465 3.71021C1.01465 3.71021 3.51993 3.6785 5.01042 4.53473Z" fill="#FFD68D"/>
<path d="M7.51564 11.6067C9.82753 11.6067 11.7017 9.73255 11.7017 7.42067C11.7017 5.10878 9.82753 3.23462 7.51564 3.23462C5.20375 3.23462 3.32959 5.10878 3.32959 7.42067C3.32959 9.73255 5.20375 11.6067 7.51564 11.6067Z" fill="#947151"/>
<path d="M7.51597 10.592C9.26741 10.592 10.6872 9.17219 10.6872 7.42076C10.6872 5.66933 9.26741 4.24951 7.51597 4.24951C5.76454 4.24951 4.34473 5.66933 4.34473 7.42076C4.34473 9.17219 5.76454 10.592 7.51597 10.592Z" fill="#3E4347"/>
</svg>
